<svg width="100mm" height="100mm" viewBox="0 0 100 100" xmlns="http://www.w3.org/2000/svg"><path d="M.012-.003v100h100v-100h-100zm55.86 11.629c4.616.074 8.732 3.197 9.994 7.71a10.527 10.527 0 00-.167-4.76 10.579 10.579 0 017.996 9.054c14.412.719 17.74 28.012 17.74 28.012L83.24 88.184 51.274 72.667s-9.398 1.87-20.242 1.92l.837-11.45c1.28.083 2.53.295 3.642.697 6.723 2.431 13.879 0 13.879 0s-7.728-3.761-15.727-4.774l-5.148-20.057a19.907 19.907 0 012.498-.268c12.47-.499 12.494-1.704 12.494-1.704s3.362-5.786 9.946-7.855a29.954 29.954 0 00-11.255-15.068c4.576-3.125 10.87-2.139 14.276 2.233a10.486 10.486 0 00-1.665-4.679 10.488 10.488 0 011.063-.036zm-29.39 27.816l4.425 17.235-2.259 2.165c-5.99.284-16.854 2.599-17.329 11.16-8.568-16.477 4.216-27.7 15.162-30.56zm49.881.42L54.726 42.94l7.902 2.257s3.77 5.036 8.4 4.741c7.684-.487 5.335-10.074 5.335-10.074zm-46.57 23.244l-.837 11.467c-5.026-.09-10.247-.609-14.906-1.908.952-1.772 7.507-8.257 7.507-8.257s3.992-1.175 8.237-1.302z" style="fill:#cc241d"/></svg>