<svg width="420" height="200" viewBox="0 0 111.12 52.917" xmlns="http://www.w3.org/2000/svg"><g style="fill:#cc241d" aria-label="NASTY Advanced Search Tweet Yielder" stroke-width=".264"><path d="M.002.01v52.91h52.91V.01zm29.556 6.153a5.603 5.603 0 015.288 4.08 5.57 5.57 0 00-.089-2.519 5.597 5.597 0 014.231 4.79c7.626.38 9.387 14.821 9.387 14.821L44.039 46.67l-16.914-8.21s-4.973.99-10.71 1.016l.443-6.058c.677.044 1.338.156 1.927.369 3.557 1.286 7.343 0 7.343 0s-4.089-1.99-8.321-2.526l-2.724-10.612a10.533 10.533 0 011.322-.142c6.598-.264 6.61-.901 6.61-.901s1.78-3.062 5.263-4.156a15.849 15.848 0 00-5.955-7.973c2.421-1.653 5.751-1.131 7.553 1.182a5.548 5.548 0 00-.88-2.476 5.55 5.55 0 01.562-.019zM14.008 20.88l2.34 9.12-1.195 1.145c-3.169.15-8.917 1.375-9.169 5.904-4.533-8.717 2.231-14.655 8.023-16.169zm26.392.223L28.952 22.73l4.18 1.194s1.995 2.665 4.445 2.509c4.066-.258 2.823-5.33 2.823-5.33zM15.76 33.4l-.444 6.067c-2.659-.048-5.422-.322-7.887-1.01.504-.937 3.972-4.368 3.972-4.368s2.113-.622 4.359-.69zM58.844 6.882h1.863V3.16l2.91 3.722h1.64V.098h-1.863v3.586L60.6.098h-1.756zM66.779 6.882H68l.699-1.638h3.211l.689 1.638h1.261L70.873.049h-1.106zm2.357-2.694l1.165-2.714 1.174 2.714zM77.911 6.979c1.426 0 2.426-.756 2.426-2.026v-.02c0-1.124-.738-1.637-2.174-1.986-1.31-.31-1.62-.543-1.62-1.066v-.02c0-.446.408-.804 1.106-.804.621 0 1.232.242 1.844.698l.64-.902C79.444.301 78.658 0 77.669 0c-1.349 0-2.32.805-2.32 1.968v.02c0 1.25.816 1.676 2.261 2.025 1.262.29 1.533.552 1.533 1.037v.02c0 .503-.465.852-1.203.852-.834 0-1.494-.32-2.144-.882l-.718.853a4.186 4.186 0 002.833 1.086zM83.893 6.882h1.203v-5.68h2.154V.097h-5.51v1.105h2.153zM91.145 6.882h1.203V4.178l2.697-4.08h-1.368l-1.92 2.994L89.863.097h-1.416l2.697 4.11zM58.31 18.36h1.969l.485-1.222h2.629l.485 1.222h2.018l-2.891-6.833H61.19zm3.007-2.685l.766-1.92.757 1.92zM69.436 18.466c.835 0 1.368-.427 1.746-.96v.853h1.174v-7.075h-1.174v2.753c-.368-.485-.902-.902-1.746-.902-1.222 0-2.377.96-2.377 2.656v.02c0 1.695 1.174 2.655 2.377 2.655zm.282-1.018c-.796 0-1.475-.65-1.475-1.638v-.02c0-1.017.67-1.637 1.475-1.637.785 0 1.484.65 1.484 1.638v.02c0 .978-.699 1.637-1.484 1.637zM76.09 18.398h1.058l2.095-5.156h-1.232l-1.387 3.76-1.378-3.76h-1.261zM82.104 18.466c.786 0 1.32-.33 1.668-.746v.64h1.145v-3.034c0-.67-.174-1.212-.553-1.58-.359-.369-.931-.572-1.698-.572-.815 0-1.368.165-1.93.417l.31.92c.466-.193.893-.32 1.465-.32.825 0 1.271.388 1.271 1.115v.126a4.283 4.283 0 00-1.378-.213c-1.251 0-2.115.543-2.115 1.648v.02c0 1.026.854 1.579 1.815 1.579zm.33-.853c-.563 0-1-.281-1-.775v-.02c0-.533.446-.853 1.203-.853.466 0 .864.088 1.164.204v.349c0 .65-.591 1.095-1.368 1.095zM86.963 18.36h1.174V15.47c0-.794.475-1.27 1.155-1.27.698 0 1.096.456 1.096 1.25v2.909h1.174v-3.267c0-1.182-.67-1.957-1.824-1.957-.796 0-1.271.416-1.6.891v-.785h-1.175zM95.967 18.475c1 0 1.592-.397 2.096-.96l-.708-.697c-.369.378-.776.63-1.33.63-.902 0-1.532-.727-1.532-1.638v-.02c0-.891.63-1.628 1.484-1.628.582 0 .96.262 1.32.64l.737-.785c-.485-.523-1.087-.882-2.047-.882-1.543 0-2.668 1.221-2.668 2.675v.02c0 1.453 1.125 2.645 2.648 2.645zM101.96 18.475c.94 0 1.61-.378 2.095-.96l-.688-.61c-.408.398-.815.61-1.388.61-.757 0-1.348-.464-1.475-1.298h3.765c.01-.116.02-.223.02-.33 0-1.473-.825-2.752-2.455-2.752-1.465 0-2.504 1.202-2.504 2.665v.02c0 1.58 1.145 2.655 2.63 2.655zm-1.465-3.033c.106-.795.61-1.347 1.329-1.347.776 0 1.222.59 1.3 1.347zM108.211 18.466c.835 0 1.368-.427 1.747-.96v.853h1.174v-7.075h-1.174v2.753c-.369-.485-.903-.902-1.747-.902-1.222 0-2.377.96-2.377 2.656v.02c0 1.695 1.174 2.655 2.377 2.655zm.282-1.018c-.796 0-1.475-.65-1.475-1.638v-.02c0-1.017.67-1.637 1.475-1.637.786 0 1.484.65 1.484 1.638v.02c0 .978-.698 1.637-1.484 1.637zM61.512 29.953c1.649 0 2.745-.824 2.745-2.21v-.02c0-1.269-.97-1.773-2.522-2.112-.95-.213-1.184-.349-1.184-.66v-.019c0-.252.223-.436.68-.436.6 0 1.28.223 1.901.67l.941-1.329c-.737-.591-1.64-.901-2.794-.901-1.63 0-2.63.91-2.63 2.17v.02c0 1.386 1.116 1.793 2.562 2.123.931.223 1.155.368 1.155.659v.02c0 .29-.272.465-.786.465-.786 0-1.523-.281-2.203-.815l-1.047 1.25c.844.747 1.979 1.125 3.182 1.125zM68.282 29.953c.941 0 1.61-.378 2.096-.96l-.69-.61c-.407.397-.814.61-1.386.61-.757 0-1.349-.465-1.475-1.298h3.764c.01-.117.02-.223.02-.33 0-1.473-.825-2.752-2.455-2.752-1.465 0-2.503 1.201-2.503 2.665v.02c0 1.58 1.145 2.655 2.63 2.655zm-1.465-3.034c.107-.794.611-1.347 1.33-1.347.775 0 1.222.591 1.3 1.347zM73.899 29.943c.786 0 1.32-.33 1.668-.746v.64h1.145v-3.034c0-.669-.174-1.212-.553-1.58-.359-.368-.931-.572-1.698-.572-.815 0-1.368.165-1.93.417l.31.92c.466-.193.893-.32 1.465-.32.825 0 1.271.388 1.271 1.115v.126a4.283 4.283 0 00-1.378-.213c-1.251 0-2.115.543-2.115 1.648v.02c0 1.027.854 1.579 1.815 1.579zm.33-.853c-.563 0-1-.281-1-.775v-.02c0-.533.446-.853 1.203-.853.466 0 .864.088 1.164.204v.349c0 .65-.591 1.095-1.368 1.095zM78.753 29.837h1.174v-1.948c0-1.357.718-2.026 1.746-2.026h.068v-1.24c-.902-.04-1.494.484-1.814 1.25v-1.154h-1.174zM85.581 29.953c1 0 1.592-.397 2.096-.96l-.708-.697c-.369.378-.776.63-1.33.63-.902 0-1.532-.727-1.532-1.638v-.02c0-.891.63-1.628 1.484-1.628.582 0 .96.262 1.32.64l.737-.785c-.485-.524-1.087-.882-2.047-.882-1.543 0-2.668 1.22-2.668 2.675v.019c0 1.454 1.125 2.646 2.648 2.646zM89.377 29.837h1.174v-2.889c0-.794.475-1.27 1.154-1.27.699 0 1.097.456 1.097 1.251v2.908h1.174V26.57c0-1.182-.67-1.957-1.824-1.957-.796 0-1.271.416-1.601.891v-2.743h-1.174zM60.5 41.314h1.883v-5.137h2.037v-1.648h-5.947v1.648H60.5zM67.245 41.352h1.047l1.155-3.499 1.145 3.5h1.057l1.679-5.157h-1.184l-1.048 3.509-1.135-3.528h-1.009l-1.135 3.528-1.028-3.509h-1.203zM77.101 41.43c.941 0 1.61-.378 2.096-.96l-.689-.61c-.408.397-.815.61-1.387.61-.757 0-1.349-.465-1.475-1.298h3.764c.01-.116.02-.223.02-.33 0-1.473-.825-2.752-2.455-2.752-1.465 0-2.503 1.202-2.503 2.665v.02c0 1.58 1.145 2.655 2.63 2.655zm-1.465-3.034c.107-.794.611-1.347 1.33-1.347.776 0 1.222.591 1.3 1.347zM83.586 41.43c.94 0 1.61-.378 2.095-.96l-.688-.61c-.408.397-.815.61-1.388.61-.757 0-1.348-.465-1.474-1.298h3.764c.01-.116.02-.223.02-.33 0-1.473-.825-2.752-2.455-2.752-1.465 0-2.503 1.202-2.503 2.665v.02c0 1.58 1.144 2.655 2.629 2.655zm-1.465-3.034c.107-.794.611-1.347 1.329-1.347.776 0 1.222.591 1.3 1.347zM89.44 41.401c.447 0 .767-.097 1.058-.262v-.96a1.58 1.58 0 01-.728.175c-.397 0-.63-.184-.63-.64v-2.51h1.377v-1.008H89.14v-1.405h-1.174v1.405h-.65v1.008h.65V39.9c0 1.124.611 1.502 1.474 1.502zM60.813 52.79h1.882v-2.568l2.58-4.216h-2.104l-1.407 2.472-1.397-2.472h-2.144l2.59 4.246zM66.636 46.889h1.261v-1.115h-1.261zm.048 5.902h1.174v-5.117h-1.174zM72.363 52.905c.942 0 1.611-.378 2.096-.96l-.689-.61c-.407.397-.815.61-1.387.61-.757 0-1.349-.465-1.475-1.298h3.765c.01-.116.019-.223.019-.33 0-1.473-.825-2.752-2.455-2.752-1.465 0-2.503 1.202-2.503 2.665v.02c0 1.58 1.145 2.655 2.63 2.655zM70.9 49.871c.106-.794.61-1.347 1.329-1.347.776 0 1.222.591 1.3 1.347zM76.567 52.79h1.174v-7.074h-1.174zM82.014 52.9c.834 0 1.368-.427 1.746-.96v.853h1.174v-7.075H83.76v2.753c-.369-.485-.902-.902-1.746-.902-1.223 0-2.377.96-2.377 2.656v.02c0 1.695 1.174 2.655 2.377 2.655zm.281-1.018c-.796 0-1.475-.65-1.475-1.638v-.02c0-1.017.67-1.637 1.475-1.637.786 0 1.484.65 1.484 1.638v.02c0 .978-.698 1.637-1.484 1.637zM89.393 52.905c.94 0 1.61-.378 2.095-.96l-.688-.61c-.408.397-.815.61-1.388.61-.757 0-1.348-.465-1.474-1.298h3.764c.01-.116.02-.223.02-.33 0-1.473-.825-2.752-2.455-2.752-1.465 0-2.503 1.202-2.503 2.665v.02c0 1.58 1.144 2.655 2.629 2.655zm-1.465-3.034c.107-.794.611-1.347 1.329-1.347.776 0 1.222.591 1.3 1.347zM93.527 52.79h1.174v-1.947c0-1.357.718-2.026 1.746-2.026h.068v-1.24c-.902-.04-1.494.484-1.814 1.25v-1.154h-1.174z"/></g></svg>
